<svg width="1075" height="585" fill="none" xmlns="http://www.w3.org/2000/svg">
  <g clip-path="url(#clip0)">
    <path d="M540.643 584.231c291.331 0 527.497-15.635 527.497-34.922 0-19.286-236.166-34.921-527.497-34.921-291.33 0-527.5 15.635-527.5 34.921 0 19.287 236.17 34.922 527.5 34.922z" fill="#F2F2F2"/>
    <path d="M520.426 167.01c-85.944 0-147.651 55.139-147.651 183.798 0 145.813 61.707 184.41 147.651 184.41 85.944 0 151.327-42.273 151.327-184.41 0-151.94-65.383-183.798-151.327-183.798zm.565 319.808c-59.527 0-90.626-34.923-90.626-135.916 0-89.112 32.372-136.105 91.899-136.105s91.899 30.868 91.899 136.105c0 98.447-33.646 135.916-93.172 135.916z" fill="#2F2E41"/>
    <path d="M321.311 433.517h-35.534v-104.64a20.957 20.957 0 00-20.956-20.955h-8.326a20.963 20.963 0 00-14.818 6.137 20.95 20.95 0 00-6.138 14.818v104.64h-100.23a11.963 11.963 0 01-10.578-17.552l106.083-200.781a20.956 20.956 0 00-9.581-28.738l-6.262-2.958a20.957 20.957 0 00-27.429 9.07L58.16 434.591a28.411 28.411 0 0014.186 39.649 28.416 28.416 0 0010.874 2.163H235.54v66.167a25.128 25.128 0 007.357 17.762 25.132 25.132 0 0017.762 7.357 25.128 25.128 0 0017.762-7.357 25.132 25.132 0 007.357-17.762v-66.167h35.534a21.443 21.443 0 0021.443-21.443 21.445 21.445 0 00-21.443-21.443zM979.308 433.517h-35.534v-104.64a20.957 20.957 0 00-20.956-20.955h-8.327a20.954 20.954 0 00-20.956 20.955v104.64h-100.23a11.963 11.963 0 01-10.577-17.552L888.81 215.184a20.958 20.958 0 00-2.853-23.697 20.951 20.951 0 00-6.727-5.041l-6.263-2.958a20.957 20.957 0 00-27.429 9.07L716.157 434.591a28.417 28.417 0 0025.06 41.812h152.318v66.167a25.12 25.12 0 0025.119 25.119 25.117 25.117 0 0025.119-25.119v-66.167h35.535a21.439 21.439 0 0021.442-21.443 21.442 21.442 0 00-21.442-21.443z" fill="#38B2AC"/>
    <path d="M331.114 421.264H295.58v-104.64c0-2.752-.542-5.477-1.596-8.019a20.948 20.948 0 00-19.36-12.937h-8.327a20.957 20.957 0 00-20.956 20.956v104.64h-100.23a11.96 11.96 0 01-10.577-17.552l106.082-200.781a20.958 20.958 0 00-9.58-28.739l-6.263-2.957a20.957 20.957 0 00-27.429 9.07L67.963 422.338a28.412 28.412 0 00-3.356 13.396v0a28.416 28.416 0 0028.416 28.416H245.34v66.167a25.11 25.11 0 007.358 17.762 25.11 25.11 0 0017.761 7.357h.001a25.12 25.12 0 0025.119-25.119V464.15h35.534a21.438 21.438 0 0015.162-6.281 21.44 21.44 0 006.281-15.162v0a21.452 21.452 0 00-6.281-15.163 21.437 21.437 0 00-15.162-6.28v0zM997.688 421.264h-35.535v-104.64a20.959 20.959 0 00-20.956-20.956h-8.326a20.954 20.954 0 00-20.956 20.956v104.64h-100.23a11.96 11.96 0 01-10.577-17.552L907.19 202.931a20.956 20.956 0 00-9.58-28.739l-6.263-2.957a20.957 20.957 0 00-27.429 9.07L734.536 422.338a28.416 28.416 0 0025.06 41.812h152.319v66.167a25.123 25.123 0 007.357 17.762 25.123 25.123 0 0017.762 7.357v0a25.119 25.119 0 0025.119-25.119V464.15h35.535a21.454 21.454 0 0019.812-13.237 21.398 21.398 0 001.63-8.206v0c0-5.687-2.26-11.142-6.28-15.163a21.45 21.45 0 00-15.162-6.28v0zM540.031 155.982c-85.944 0-147.651 55.139-147.651 183.798 0 145.813 61.707 184.41 147.651 184.41 85.944 0 151.327-42.273 151.327-184.41 0-151.94-65.383-183.798-151.327-183.798zm.565 319.808c-59.527 0-90.626-34.923-90.626-135.916 0-89.112 32.372-136.105 91.899-136.105s91.899 30.868 91.899 136.105c0 98.447-33.645 135.916-93.172 135.916v0z" stroke="#3F3D56" stroke-miterlimit="10"/>
    <path d="M1006.86 419.55a20.83 20.83 0 0018.46-2.111 20.77 20.77 0 006.59-6.895 20.834 20.834 0 002.83-9.113c.22-3.215-.31-6.439-1.54-9.416a20.913 20.913 0 00-5.58-7.74 20.736 20.736 0 00-8.45-4.438 20.779 20.779 0 00-9.53-.203l.52 10.713-5.07-9.181a20.719 20.719 0 00-10.686 11.723 20.4 20.4 0 00-1.197 5.63 20.81 20.81 0 0013.653 21.031z" fill="#57B894"/>
    <path d="M1031.94 543.793c-1.79-9.11 5.96-17.187 13.62-22.436 7.66-5.25 16.61-10.408 19.22-19.317 3.75-12.804-7.43-24.53-16.14-34.642-6.45-7.504-12-15.748-16.52-24.557-1.81-3.533-3.48-7.226-3.95-11.167-.69-5.675 1.14-11.323 2.97-16.736a1205.771 1205.771 0 0119.63-53.65M1007.72 416.792a20.814 20.814 0 0025.05-9.005 20.825 20.825 0 002.82-9.114c.23-3.215-.3-6.439-1.53-9.416a20.913 20.913 0 00-5.58-7.74 20.822 20.822 0 00-17.99-4.641l.52 10.713-5.06-9.181a20.719 20.719 0 00-10.688 11.723 20.437 20.437 0 00-1.198 5.63 20.816 20.816 0 0013.656 21.031v0z" stroke="#3F3D56" stroke-miterlimit="10"/>
    <path d="M1029.4 357.588a20.78 20.78 0 0114.98-13.197l1.71 10.183 3.18-10.695a20.798 20.798 0 0119.6 14.766 20.782 20.782 0 01-.27 12.906 20.773 20.773 0 01-7.82 10.264 20.826 20.826 0 01-12.38 3.674 20.804 20.804 0 01-12.16-4.331 20.808 20.808 0 01-7.26-10.668 20.704 20.704 0 01.42-12.902z" fill="#57B894"/>
    <path d="M1030.54 353.911a20.78 20.78 0 0114.98-13.198l1.71 10.184 3.18-10.696c4.41.066 8.69 1.531 12.21 4.186a20.778 20.778 0 017.4 10.581 20.85 20.85 0 01-.27 12.905 20.848 20.848 0 01-7.83 10.265 20.796 20.796 0 01-12.37 3.674 20.858 20.858 0 01-12.17-4.331 20.808 20.808 0 01-7.26-10.668 20.848 20.848 0 01.42-12.902h0z" stroke="#3F3D56" stroke-miterlimit="10"/>
    <path d="M1044.99 467.604a20.82 20.82 0 0014.83-.241 20.843 20.843 0 0010.9-10.052 20.832 20.832 0 001.44-14.758 20.805 20.805 0 00-8.75-11.971l-2.44 8.219-1.73-10.304a20.737 20.737 0 00-8.08-1.251c-2.74.121-5.42.779-7.89 1.936a20.717 20.717 0 00-6.55 4.809 20.691 20.691 0 00-4.21 6.949 20.708 20.708 0 00-1.22 8.03c.12 2.731.78 5.411 1.94 7.887a20.79 20.79 0 0011.76 10.747z" fill="#57B894"/>
    <path d="M1045.98 463.88a20.825 20.825 0 0014.83-.242 20.835 20.835 0 0010.9-10.052 20.778 20.778 0 001.44-14.758 20.811 20.811 0 00-8.75-11.971l-2.44 8.219-1.73-10.304a20.737 20.737 0 00-8.08-1.251c-2.74.121-5.42.779-7.89 1.936a20.748 20.748 0 00-6.55 4.809 20.71 20.71 0 00-4.21 6.949 20.71 20.71 0 00-1.22 8.03c.12 2.731.78 5.411 1.94 7.888a20.801 20.801 0 0011.76 10.747h0z" stroke="#3F3D56" stroke-miterlimit="10"/>
    <path d="M1023.32 502.167c.83 4.7 3.25 8.973 6.85 12.103a20.79 20.79 0 0012.94 5.086c4.77.161 9.45-1.324 13.26-4.204 3.8-2.88 6.5-6.981 7.64-11.615 1.14-4.634.65-9.519-1.38-13.836a20.826 20.826 0 00-9.79-9.875 20.79 20.79 0 00-13.82-1.5 20.825 20.825 0 00-11.69 7.544l9.28 13.956-12.67-7.408a20.516 20.516 0 00-.62 9.749z" fill="#57B894"/>
    <path d="M1024.18 499.409c.83 4.7 3.24 8.973 6.85 12.103a20.79 20.79 0 0026.19.882 20.782 20.782 0 007.65-11.615c1.14-4.634.65-9.519-1.38-13.836a20.826 20.826 0 00-9.79-9.875 20.812 20.812 0 00-25.51 6.044l9.27 13.956-12.67-7.407a20.636 20.636 0 00-.61 9.748v0z" stroke="#3F3D56" stroke-miterlimit="10"/>
    <path d="M9.007 470.249a13.676 13.676 0 0017.303-18.091 13.67 13.67 0 00-9.214-8.001 13.669 13.669 0 00-6.268-.133l.343 7.038-3.33-6.032a13.624 13.624 0 00-7.02 7.702c-.435 1.19-.7 2.435-.786 3.699a13.67 13.67 0 008.972 13.818z" fill="#57B894"/>
    <path d="M25.484 551.879c-1.176-5.986 3.918-11.292 8.949-14.741s10.91-6.838 12.626-12.692c2.467-8.412-4.881-16.116-10.601-22.76a82.294 82.294 0 01-10.856-16.135 22.204 22.204 0 01-2.597-7.336c-.451-3.729.747-7.44 1.954-10.996a794.96 794.96 0 0112.896-35.249" stroke="#3F3D56" stroke-miterlimit="10"/>
    <path d="M9.57 468.437a13.676 13.676 0 0017.303-18.091 13.67 13.67 0 00-9.214-8.001 13.67 13.67 0 00-6.267-.133l.342 7.038-3.33-6.032a13.624 13.624 0 00-7.02 7.702c-.435 1.19-.7 2.435-.786 3.699a13.67 13.67 0 008.973 13.818v0z" stroke="#3F3D56" stroke-miterlimit="10"/>
    <path d="M23.812 429.539a13.656 13.656 0 019.842-8.671l1.126 6.691 2.088-7.027a13.67 13.67 0 017.561 24.924 13.67 13.67 0 01-20.894-7.44 13.673 13.673 0 01.277-8.477z" fill="#57B894"/>
    <path d="M24.563 427.123a13.656 13.656 0 019.842-8.671l1.126 6.691 2.088-7.027a13.676 13.676 0 0112.704 18.18 13.67 13.67 0 01-13.273 9.158 13.67 13.67 0 01-12.487-18.331v0z" stroke="#3F3D56" stroke-miterlimit="10"/>
    <path d="M34.058 501.822a13.673 13.673 0 0012.101-24.325l-1.604 5.4-1.137-6.77a13.677 13.677 0 00-14.797 3.609 13.672 13.672 0 005.437 22.086z" fill="#57B894"/>
    <path d="M34.708 499.374a13.674 13.674 0 0017.85-16.459 13.671 13.671 0 00-5.748-7.865l-1.604 5.4-1.138-6.77a13.684 13.684 0 00-10.49.455 13.673 13.673 0 001.13 25.239v0z" stroke="#3F3D56" stroke-miterlimit="10"/>
    <path d="M19.822 524.53a13.667 13.667 0 102.635-10.708l6.092 9.17-8.324-4.867a13.546 13.546 0 00-.403 6.405z" fill="#57B894"/>
    <path d="M20.385 522.718a13.667 13.667 0 102.635-10.708l6.092 9.17-8.324-4.867a13.546 13.546 0 00-.403 6.405v0z" stroke="#3F3D56" stroke-miterlimit="10"/>
    <path d="M480.946 341.116c9.389 0 17-9.85 17-22 0-12.151-7.611-22-17-22s-17 9.849-17 22c0 12.15 7.611 22 17 22zM573.446 341.616c9.389 0 17-9.85 17-22 0-12.151-7.611-22-17-22s-17 9.849-17 22c0 12.15 7.611 22 17 22zM560.446 384.616c0 9.94-13.88 18-31 18-17.12 0-31-8.06-31-18 0-8.61 10.41-15.81 24.32-17.57a49.908 49.908 0 016.68-.43c3.743-.013 7.476.39 11.13 1.2 11.62 2.59 19.87 9.14 19.87 16.8z" fill="#2F2E41"/>
    <path d="M484.946 336.116c9.389 0 17-9.85 17-22 0-12.151-7.611-22-17-22s-17 9.849-17 22c0 12.15 7.611 22 17 22zM577.446 336.616c9.389 0 17-9.85 17-22 0-12.151-7.611-22-17-22s-17 9.849-17 22c0 12.15 7.611 22 17 22zM533.446 397.616c17.121 0 31-8.059 31-18 0-9.942-13.879-18-31-18-17.121 0-31 8.058-31 18 0 9.941 13.879 18 31 18z" stroke="#3F3D56" stroke-miterlimit="10"/>
    <path d="M540.946 369.316a4.94 4.94 0 01-1.32 3.392 4.338 4.338 0 01-3.18 1.408h-10a4.666 4.666 0 01-4.5-4.8c-.005-.975.28-1.93.82-2.742a46.942 46.942 0 016.68-.458 47.618 47.618 0 0111.13 1.28 5.07 5.07 0 01.37 1.92zM484.946 313.116a5 5 0 10-.001-10.001 5 5 0 00.001 10.001zM577.946 313.116a5 5 0 10-.001-10.001 5 5 0 00.001 10.001z" fill="#fff"/>
    <path opacity=".3" d="M582.946 360.116a5 5 0 10-.001-10.001 5 5 0 00.001 10.001zM460.946 360.116a5 5 0 10-.001-10.001 5 5 0 00.001 10.001z" fill="#38B2AC"/>
  </g>
  <defs>
    <clipPath id="clip0">
      <path fill="#fff" d="M0 0h1074.39v584.231H0z"/>
    </clipPath>
  </defs>
</svg>
